<svg id="visual" viewBox="0 0 900 100" width="900" height="100" xmlns="http://www.w3.org/2000/svg" xmlns:xlink="http://www.w3.org/1999/xlink" version="1.1"><rect x="0" y="0" width="900" height="100" fill="#C62368"></rect><path d="M0 41L30 40.5C60 40 120 39 180 39C240 39 300 40 360 37.7C420 35.3 480 29.7 540 26.2C600 22.7 660 21.3 720 25.8C780 30.3 840 40.7 870 45.8L900 51L900 101L870 101C840 101 780 101 720 101C660 101 600 101 540 101C480 101 420 101 360 101C300 101 240 101 180 101C120 101 60 101 30 101L0 101Z" fill="#fa7268"></path><path d="M0 58L30 57C60 56 120 54 180 52.3C240 50.7 300 49.3 360 47.2C420 45 480 42 540 42.2C600 42.3 660 45.7 720 45C780 44.3 840 39.7 870 37.3L900 35L900 101L870 101C840 101 780 101 720 101C660 101 600 101 540 101C480 101 420 101 360 101C300 101 240 101 180 101C120 101 60 101 30 101L0 101Z" fill="#e54b84"></path><path d="M0 54L30 57.8C60 61.7 120 69.3 180 70.3C240 71.3 300 65.7 360 62.7C420 59.7 480 59.3 540 61.3C600 63.3 660 67.7 720 69.7C780 71.7 840 71.3 870 71.2L900 71L900 101L870 101C840 101 780 101 720 101C660 101 600 101 540 101C480 101 420 101 360 101C300 101 240 101 180 101C120 101 60 101 30 101L0 101Z" fill="#b33da4"></path><path d="M0 88L30 85.5C60 83 120 78 180 77.5C240 77 300 81 360 83.7C420 86.3 480 87.7 540 86.8C600 86 660 83 720 81C780 79 840 78 870 77.5L900 77L900 101L870 101C840 101 780 101 720 101C660 101 600 101 540 101C480 101 420 101 360 101C300 101 240 101 180 101C120 101 60 101 30 101L0 101Z" fill="#5646ba"></path></svg>