<svg id="visual" viewBox="0 0 900 100" width="900" height="100" xmlns="http://www.w3.org/2000/svg" xmlns:xlink="http://www.w3.org/1999/xlink" version="1.1"><rect x="0" y="0" width="900" height="100" fill="#C62368"></rect><path d="M0 53L30 53.3C60 53.7 120 54.3 180 57.2C240 60 300 65 360 64C420 63 480 56 540 57.2C600 58.3 660 67.7 720 71.7C780 75.7 840 74.3 870 73.7L900 73L900 0L870 0C840 0 780 0 720 0C660 0 600 0 540 0C480 0 420 0 360 0C300 0 240 0 180 0C120 0 60 0 30 0L0 0Z" fill="#fa7268"></path><path d="M0 40L30 39.8C60 39.7 120 39.3 180 39C240 38.7 300 38.3 360 41.8C420 45.3 480 52.7 540 55.8C600 59 660 58 720 56.2C780 54.3 840 51.7 870 50.3L900 49L900 0L870 0C840 0 780 0 720 0C660 0 600 0 540 0C480 0 420 0 360 0C300 0 240 0 180 0C120 0 60 0 30 0L0 0Z" fill="#de4b88"></path><path d="M0 25L30 24.3C60 23.7 120 22.3 180 22.8C240 23.3 300 25.7 360 28.7C420 31.7 480 35.3 540 37.2C600 39 660 39 720 36C780 33 840 27 870 24L900 21L900 0L870 0C840 0 780 0 720 0C660 0 600 0 540 0C480 0 420 0 360 0C300 0 240 0 180 0C120 0 60 0 30 0L0 0Z" fill="#9f42a6"></path><path d="M0 23L30 21.2C60 19.3 120 15.7 180 14.2C240 12.7 300 13.3 360 16C420 18.7 480 23.3 540 25.5C600 27.7 660 27.3 720 24.2C780 21 840 15 870 12L900 9L900 0L870 0C840 0 780 0 720 0C660 0 600 0 540 0C480 0 420 0 360 0C300 0 240 0 180 0C120 0 60 0 30 0L0 0Z" fill="#0149b4"></path></svg>