<svg id="visual" viewBox="0 0 900 100" width="900" height="100" xmlns="http://www.w3.org/2000/svg" xmlns:xlink="http://www.w3.org/1999/xlink" version="1.1"><rect x="0" y="0" width="900" height="100" fill="#042f5a"></rect><path d="M0 9L11.5 14.2C23 19.3 46 29.7 69 35.7C92 41.7 115 43.3 138.2 39.7C161.3 36 184.7 27 207.8 26.5C231 26 254 34 277 39.3C300 44.7 323 47.3 346 45.3C369 43.3 392 36.7 415.2 35C438.3 33.3 461.7 36.7 484.8 37.5C508 38.3 531 36.7 554 31.5C577 26.3 600 17.7 623 15.7C646 13.7 669 18.3 692.2 28.3C715.3 38.3 738.7 53.7 761.8 61.7C785 69.7 808 70.3 831 65.5C854 60.7 877 50.3 888.5 45.2L900 40L900 101L888.5 101C877 101 854 101 831 101C808 101 785 101 761.8 101C738.7 101 715.3 101 692.2 101C669 101 646 101 623 101C600 101 577 101 554 101C531 101 508 101 484.8 101C461.7 101 438.3 101 415.2 101C392 101 369 101 346 101C323 101 300 101 277 101C254 101 231 101 207.8 101C184.7 101 161.3 101 138.2 101C115 101 92 101 69 101C46 101 23 101 11.5 101L0 101Z" fill="#0578d6"></path><path d="M0 72L11.5 67.8C23 63.7 46 55.3 69 52.7C92 50 115 53 138.2 56C161.3 59 184.7 62 207.8 65.5C231 69 254 73 277 67C300 61 323 45 346 38.3C369 31.7 392 34.3 415.2 39.7C438.3 45 461.7 53 484.8 52.2C508 51.3 531 41.7 554 44.7C577 47.7 600 63.3 623 66.2C646 69 669 59 692.2 55.5C715.3 52 738.7 55 761.8 59.5C785 64 808 70 831 68.5C854 67 877 58 888.5 53.5L900 49L900 101L888.5 101C877 101 854 101 831 101C808 101 785 101 761.8 101C738.7 101 715.3 101 692.2 101C669 101 646 101 623 101C600 101 577 101 554 101C531 101 508 101 484.8 101C461.7 101 438.3 101 415.2 101C392 101 369 101 346 101C323 101 300 101 277 101C254 101 231 101 207.8 101C184.7 101 161.3 101 138.2 101C115 101 92 101 69 101C46 101 23 101 11.5 101L0 101Z" fill="#0069cc"></path><path d="M0 54L11.5 59.5C23 65 46 76 69 79C92 82 115 77 138.2 74.8C161.3 72.7 184.7 73.3 207.8 74.2C231 75 254 76 277 78C300 80 323 83 346 83.5C369 84 392 82 415.2 78.2C438.3 74.3 461.7 68.7 484.8 63.5C508 58.3 531 53.7 554 52.2C577 50.7 600 52.3 623 51.8C646 51.3 669 48.7 692.2 54C715.3 59.3 738.7 72.7 761.8 77.8C785 83 808 80 831 79.8C854 79.7 877 82.3 888.5 83.7L900 85L900 101L888.5 101C877 101 854 101 831 101C808 101 785 101 761.8 101C738.7 101 715.3 101 692.2 101C669 101 646 101 623 101C600 101 577 101 554 101C531 101 508 101 484.8 101C461.7 101 438.3 101 415.2 101C392 101 369 101 346 101C323 101 300 101 277 101C254 101 231 101 207.8 101C184.7 101 161.3 101 138.2 101C115 101 92 101 69 101C46 101 23 101 11.5 101L0 101Z" fill="#0059c0"></path><path d="M0 73L11.5 72.7C23 72.3 46 71.7 69 72.3C92 73 115 75 138.2 76.3C161.3 77.7 184.7 78.3 207.8 81.3C231 84.3 254 89.7 277 90.3C300 91 323 87 346 82.3C369 77.7 392 72.3 415.2 71.2C438.3 70 461.7 73 484.8 76.2C508 79.3 531 82.7 554 80.5C577 78.3 600 70.7 623 67.8C646 65 669 67 692.2 69.2C715.3 71.3 738.7 73.7 761.8 75.8C785 78 808 80 831 80.2C854 80.3 877 78.7 888.5 77.8L900 77L900 101L888.5 101C877 101 854 101 831 101C808 101 785 101 761.8 101C738.7 101 715.3 101 692.2 101C669 101 646 101 623 101C600 101 577 101 554 101C531 101 508 101 484.8 101C461.7 101 438.3 101 415.2 101C392 101 369 101 346 101C323 101 300 101 277 101C254 101 231 101 207.8 101C184.7 101 161.3 101 138.2 101C115 101 92 101 69 101C46 101 23 101 11.5 101L0 101Z" fill="#0149b4"></path></svg>